<?xml version="1.0" encoding="utf-8"?>
<!-- Generator: Adobe Illustrator 16.0.0, SVG Export Plug-In . SVG Version: 6.00 Build 0)  -->
<!DOCTYPE svg PUBLIC "-//W3C//DTD SVG 1.1//EN" "http://www.w3.org/Graphics/SVG/1.1/DTD/svg11.dtd">
<svg version="1.1" id="Capa_1" xmlns="http://www.w3.org/2000/svg" xmlns:xlink="http://www.w3.org/1999/xlink" x="0px" y="0px"
	 width="882px" height="153px" viewBox="-236.75 0.5 882 153" enable-background="new -236.75 0.5 882 153" xml:space="preserve">
<g>
	<g>
		<path fill="#EC1C24" d="M-80.542,116.912c7.735,5.916,18.304,8.521,27.827,9.372c20.506,1.507,44.978-6.31,55.906-25.047
			c3.412-5.93-9.06,5.102-11.272,6.332c-9.007,8.483-22.658,13.14-34.927,11.97c-2.357-0.232-12.227-2.161-6.65-5.865
			c3.333-2.255,7.741-3.435,11.481-4.84c19.27-7.181-27.099-0.976-29.404-0.88c-2.036,0.053-4.083,0.102-6.112,0.195
			c-2.249,0.066-12.988-0.115-10.572,4.751C-83.51,114.512-81.924,115.85-80.542,116.912"/>
		<path fill="#F48220" d="M-77.166,113.535c9.738,0.145,19.779-4.062,27.93-9.052c17.361-11.018,32.354-31.879,29.965-53.44
			c-0.8-6.803-4.241,9.497-5.282,11.804C-26.721,75.027-34.9,86.902-45.452,93.277c-2.036,1.215-11.117,5.552-8.841-0.742
			c1.324-3.799,4.168-7.378,6.331-10.733C-36.764,64.55-70.309,97.17-72.098,98.625c-1.602,1.252-3.209,2.511-4.788,3.798
			c-1.761,1.397-10.492,7.647-5.646,10.115C-80.976,113.383-78.902,113.514-77.166,113.535"/>
		<path fill="#F8BF22" d="M-76.465,108.798c7.886-5.711,13.416-15.084,16.961-23.962c7.326-19.21,6.861-44.903-7.954-60.744
			c-4.7-4.97,2.285,10.144,2.83,12.618c5.554,11.053,6.094,25.467,1.448,36.885c-0.902,2.189-5.579,11.096-7.523,4.693
			c-1.208-3.835-1.069-8.398-1.339-12.385c-1.354-20.528-8.718,25.679-9.286,27.914c-0.529,1.964-1.067,3.937-1.558,5.916
			c-0.581,2.168-3.84,12.407,1.515,11.482C-79.609,110.952-77.879,109.817-76.465,108.798"/>
		<path fill="#C4E86B" d="M-78.591,104.724c3.146-9.22,2.248-20.063,0.028-29.36c-5.093-19.916-20.301-40.633-41.535-45.028
			c-6.717-1.346,7.715,6.964,9.591,8.667c10.9,5.836,19.66,17.297,22.456,29.303c0.53,2.307,1.841,12.283-3.434,8.172
			c-3.202-2.438-5.729-6.244-8.252-9.344c-12.938-15.986,7.696,26,8.526,28.153c0.698,1.914,1.396,3.835,2.133,5.733
			c0.778,2.111,4.023,12.348,7.865,8.506C-79.923,108.296-79.156,106.368-78.591,104.724"/>
		<path fill="#00ADEE" d="M-82.796,102.599c-2.891-9.299-9.998-17.529-17.274-23.735c-15.849-13.091-40.343-20.877-60.092-11.913
			c-6.223,2.867,10.341,1.084,12.851,1.354c12.255-1.709,26.088,2.387,35.416,10.442c1.783,1.549,8.724,8.84,2.03,8.63
			c-4.019-0.081-8.296-1.674-12.159-2.691c-19.872-5.291,21.538,16.474,23.474,17.726c1.696,1.136,3.385,2.278,5.103,3.376
			c1.869,1.244,10.528,7.612,11.366,2.242C-81.77,106.272-82.286,104.265-82.796,102.599"/>
		<path fill="#2E3191" d="M-87.358,103.317c-7.735-5.915-18.301-8.52-27.818-9.363c-20.507-1.514-44.984,6.303-55.914,25.039
			c-3.411,5.938,9.066-5.103,11.278-6.331c9.002-8.483,22.646-13.142,34.922-11.97c2.357,0.24,12.231,2.168,6.649,5.863
			c-3.325,2.265-7.733,3.437-11.477,4.84c-19.282,7.183,27.101,0.981,29.397,0.882c2.039-0.053,4.075-0.104,6.111-0.197
			c2.25-0.064,12.997,0.116,10.567-4.752C-84.397,105.72-85.975,104.382-87.358,103.317"/>
		<path fill="#EC1C24" d="M-21.352,91.043c-4.061-0.415-7.684,2.546-8.091,6.599c-0.422,4.062,2.539,7.692,6.6,8.101
			c4.063,0.415,7.686-2.54,8.099-6.601C-14.338,95.082-17.291,91.457-21.352,91.043"/>
		<path fill="#F48220" d="M-38.277,56.028c-4.062-0.415-7.685,2.539-8.101,6.6c-0.413,4.061,2.541,7.691,6.602,8.1
			c4.061,0.414,7.685-2.541,8.104-6.601C-31.263,60.065-34.219,56.442-38.277,56.028"/>
		<path fill="#F8BF22" d="M-74.706,39.009c-4.061-0.415-7.683,2.547-8.099,6.6c-0.413,4.06,2.54,7.691,6.601,8.099
			c4.061,0.415,7.686-2.54,8.1-6.6C-67.688,43.046-70.644,39.423-74.706,39.009"/>
		<path fill="#C4E86B" d="M-114.114,46.271c-4.063-0.415-7.686,2.54-8.102,6.6c-0.412,4.061,2.541,7.691,6.602,8.1
			c4.061,0.414,7.684-2.541,8.099-6.601C-107.099,50.309-110.054,46.685-114.114,46.271"/>
		<path fill="#00ADEE" d="M-141.438,73.2c-4.061-0.414-7.69,2.541-8.099,6.6c-0.416,4.062,2.547,7.691,6.605,8.1
			c4.062,0.416,7.686-2.539,8.093-6.6C-134.426,77.239-137.385,73.616-141.438,73.2"/>
		<path fill="#2E3191" d="M-145.157,112.262c-4.061-0.414-7.685,2.547-8.091,6.607c-0.424,4.053,2.539,7.686,6.599,8.092
			c4.055,0.415,7.688-2.539,8.1-6.602C-138.141,116.301-141.097,112.678-145.157,112.262"/>
	</g>
	<g>
		<path fill="#2E3191" d="M382.983,84.221l0.424,0.37c-0.203,2.546-0.334,4.526-0.406,5.933c-0.072,1.41-0.104,2.756-0.104,4.031
			l0.262,0.086c1.287-3.166,3.238-5.609,5.838-7.326c2.604-1.726,5.652-2.592,9.152-2.592c4.637,0,7.945,1.447,9.926,4.336
			c1.992,2.902,2.99,7.854,2.99,14.846v5.13c0,7.14,0.459,11.476,1.404,12.987c0.924,1.537,2.771,2.373,5.529,2.549v1.271
			c-1.441-0.063-2.939-0.174-4.557-0.362c-1.586-0.188-3.258-0.436-5.004-0.733c-0.99,0.299-1.848,0.545-2.621,0.733
			c-0.764,0.188-1.498,0.328-2.195,0.443c0.131-1.498,0.246-3.199,0.318-5.145c0.072-1.936,0.104-4.336,0.104-7.182
			c0-11.287-0.699-18.338-2.098-21.123c-1.404-2.795-3.869-4.19-7.443-4.19c-3.383,0-6.068,1.271-8.047,3.825
			c-1.98,2.562-2.963,6.055-2.963,10.478v7.197c0,6.696,0.467,10.792,1.367,12.284c0.934,1.498,2.752,2.328,5.494,2.502
			l-0.043,1.271c-1.07-0.035-2.293-0.113-3.682-0.275c-1.393-0.157-3.588-0.479-6.609-0.953c-3.076,0.475-5.316,0.796-6.715,0.953
			c-1.418,0.162-2.662,0.24-3.727,0.275v-1.314c2.787-0.146,4.65-0.969,5.574-2.476c0.939-1.513,1.396-5.851,1.396-13.018v-5.378
			c0-6.92-0.459-11.08-1.367-12.5c-0.926-1.405-2.811-2.141-5.646-2.198v-1.274c1.717-0.281,3.361-0.5,4.947-0.646
			c1.578-0.158,3.115-0.262,4.613-0.32c0.539-0.398,1.1-0.791,1.703-1.186C381.412,85.13,382.133,84.691,382.983,84.221
			 M358.696,101.021v9.672c0,4.648,0.318,7.705,0.969,9.16c0.645,1.463,1.805,2.184,3.482,2.184c0.502,0,0.977-0.073,1.412-0.23
			c0.438-0.162,0.881-0.402,1.332-0.752l0.809,1.158c-1.631,1.482-3.164,2.583-4.598,3.28c-1.428,0.678-2.84,1.024-4.266,1.024
			c-1.719,0-3.059-0.652-4.045-1.949c-0.961-1.287-1.516-3.164-1.631-5.623c-1.545,2.51-3.553,4.424-6.012,5.755
			c-2.445,1.323-5.204,1.993-8.253,1.993c-3.325,0-5.907-0.801-7.742-2.371c-1.841-1.579-2.75-3.799-2.75-6.651
			c0-5.159,4.919-9.075,14.729-11.729c1.439-0.394,2.539-0.697,3.304-0.924c2.824-0.801,4.586-1.594,5.299-2.401
			c0.705-0.794,1.047-2.212,1.047-4.249c0-4.264-0.59-7.283-1.76-9.061c-1.166-1.775-3.102-2.679-5.809-2.679
			c-2.008,0-3.624,0.597-4.875,1.783c-1.237,1.187-1.863,2.743-1.863,4.649c0,0.707,0.073,1.435,0.219,2.14
			c0.132,0.722,0.35,1.437,0.642,2.097c-0.655,0.32-1.261,0.553-1.806,0.678c-0.553,0.145-1.092,0.215-1.594,0.215
			c-1.215,0-2.198-0.354-2.933-1.08c-0.757-0.723-1.136-1.631-1.136-2.73c0-2.785,1.367-5.102,4.097-6.92
			c2.715-1.824,6.186-2.736,10.393-2.736c4.62,0,8.003,1.305,10.144,3.908C357.627,91.213,358.696,95.361,358.696,101.021z
			 M351.781,105.229c-1.543,0.539-3.725,1.187-6.513,1.957c-7.108,1.92-10.66,4.883-10.66,8.885c0,2.228,0.626,4.002,1.921,5.32
			c1.28,1.316,3.041,1.963,5.27,1.963c3.077,0,5.51-1.026,7.299-3.078c1.797-2.037,2.684-4.866,2.684-8.482V105.229L351.781,105.229
			z M314.816,60.477l0.422,0.264c-0.131,2.553-0.248,5.101-0.319,7.609c-0.072,2.519-0.103,4.955-0.103,7.357v34.884
			c0,6.272,0.466,10.136,1.403,11.606c0.925,1.463,2.773,2.24,5.54,2.328l-0.046,1.314c-1.104-0.035-2.357-0.113-3.754-0.275
			c-1.427-0.158-3.617-0.479-6.606-0.953c-2.038,0.343-3.916,0.634-5.646,0.838c-1.74,0.203-3.363,0.328-4.849,0.392v-1.271
			c2.788-0.115,4.665-0.939,5.604-2.459c0.946-1.516,1.419-5.881,1.419-13.077V79.898c0-6.936-0.46-11.098-1.405-12.502
			c-0.924-1.403-2.801-2.125-5.617-2.184v-1.271c1.719-0.254,3.377-0.459,4.972-0.604c1.592-0.159,3.165-0.276,4.708-0.362
			c0.713-0.459,1.403-0.881,2.081-1.268C313.303,61.313,314.023,60.891,314.816,60.477z M290.527,101.021v9.672
			c0,4.648,0.32,7.705,0.968,9.16c0.646,1.463,1.805,2.184,3.484,2.184c0.503,0,0.977-0.073,1.413-0.23
			c0.437-0.162,0.887-0.402,1.331-0.752l0.808,1.158c-1.63,1.482-3.165,2.583-4.599,3.28c-1.427,0.678-2.846,1.024-4.264,1.024
			c-1.719,0-3.058-0.652-4.046-1.949c-0.96-1.287-1.514-3.164-1.631-5.623c-1.542,2.51-3.55,4.424-6.011,5.755
			c-2.444,1.323-5.202,1.993-8.252,1.993c-3.324,0-5.908-0.801-7.742-2.371c-1.833-1.579-2.75-3.799-2.75-6.651
			c0-5.159,4.919-9.075,14.728-11.729c1.441-0.394,2.547-0.697,3.305-0.924c2.822-0.801,4.583-1.594,5.297-2.401
			c0.706-0.794,1.049-2.212,1.049-4.249c0-4.264-0.582-7.283-1.763-9.061c-1.163-1.775-3.106-2.679-5.807-2.679
			c-2.008,0-3.623,0.597-4.875,1.783c-1.237,1.187-1.862,2.743-1.862,4.649c0,0.707,0.071,1.435,0.218,2.14
			c0.133,0.722,0.351,1.437,0.642,2.097c-0.654,0.32-1.26,0.553-1.805,0.678c-0.554,0.145-1.093,0.215-1.595,0.215
			c-1.215,0-2.196-0.354-2.932-1.08c-0.757-0.723-1.129-1.631-1.129-2.73c0-2.785,1.359-5.102,4.09-6.92
			c2.715-1.824,6.178-2.736,10.383-2.736c4.629,0,8.012,1.305,10.152,3.908C289.458,91.213,290.527,95.361,290.527,101.021z
			 M283.615,105.229c-1.542,0.539-3.727,1.187-6.514,1.957c-7.109,1.92-10.669,4.883-10.669,8.885c0,2.228,0.637,4.002,1.931,5.32
			c1.279,1.316,3.043,1.963,5.268,1.963c3.086,0,5.509-1.026,7.299-3.078c1.799-2.037,2.687-4.866,2.687-8.482L283.615,105.229
			L283.615,105.229z M251.277,85.45v1.646c-5.043,6.357-9.766,12.545-14.16,18.584c-4.396,6.038-8.484,11.991-12.297,17.836h7.275
			c7.117,0,12.027-0.627,14.714-1.871c2.706-1.236,4.438-3.535,5.23-6.906h1.652c-0.204,1.129-0.524,2.285-0.976,3.473
			c-0.459,1.199-1.048,2.467-1.774,3.813c0.159,0.467,0.274,0.814,0.334,1.043c0.059,0.246,0.087,0.479,0.087,0.688
			c0,0.772-0.363,1.302-1.083,1.623c-0.722,0.3-2.038,0.464-3.968,0.464c-1.569,0-4.343-0.076-8.302-0.216
			c-3.979-0.132-7.152-0.203-9.555-0.203c-1.893,0-3.9,0.026-6.011,0.101c-2.125,0.074-4.396,0.176-6.825,0.318v-1.736
			c6.84-8.106,15.484-19.858,25.962-35.276l0.757-1.146h-4.78c-7.108,0-11.823,0.555-14.116,1.639
			c-2.299,1.086-3.747,3.107-4.338,6.068h-1.577c0.231-1.127,0.522-2.24,0.874-3.324c0.362-1.084,0.776-2.17,1.294-3.237
			c-0.087-0.388-0.159-0.692-0.203-0.91c-0.044-0.196-0.051-0.378-0.051-0.474c0-0.686,0.15-1.157,0.486-1.434
			c0.32-0.264,0.91-0.387,1.745-0.387c0.204,0,0.758,0,1.668,0c5.437,0.096,10.923,0.152,16.46,0.152
			c2.452,0,4.605-0.029,6.446-0.072C248.068,85.646,249.757,85.559,251.277,85.45z M193.442,74.943h2.152v11.685l10.756-0.087v3.057
			l-10.756-0.175l-0.174,18.795v0.729c0,5.361,0.641,9.146,1.893,11.343c1.26,2.213,3.34,3.312,6.242,3.312
			c1.376,0,2.736-0.275,4.047-0.828c1.304-0.547,2.604-1.383,3.87-2.482l0.933,1.145c-1.608,1.703-3.412,2.961-5.406,3.812
			c-1.979,0.853-4.169,1.272-6.535,1.272c-4.431,0-7.589-1.287-9.481-3.861c-1.892-2.555-2.844-7.11-2.844-13.623v-1.404
			l0.254-18.206h-7.102V87.52c3.346-0.451,6.055-1.711,8.062-3.793C191.375,81.658,192.728,78.729,193.442,74.943z M165.704,98.189
			c0.899,0,1.513-0.086,1.797-0.254c0.297-0.16,0.443-0.494,0.443-0.976c0-2.785-0.916-5.217-2.773-7.269
			c-1.847-2.037-4.066-3.064-6.672-3.064c-2.911,0-5.262,1.094-7.088,3.238c-1.818,2.17-2.75,5.001-2.815,8.543L165.704,98.189z
			 M175.395,100.359l-24.727,0.336c-0.844,0-1.433,0.275-1.753,0.82c-0.328,0.553-0.488,1.688-0.488,3.414
			c0,5.334,1.471,9.707,4.417,13.162c2.947,3.442,6.73,5.159,11.374,5.159c2.052,0,4.046-0.415,5.967-1.243
			c1.921-0.838,3.747-2.066,5.465-3.695l0.809,1.381c-1.762,2.271-4.062,4.024-6.905,5.291c-2.846,1.272-5.996,1.904-9.438,1.904
			c-6.012,0-10.739-1.773-14.16-5.326c-3.42-3.558-5.146-8.47-5.146-14.727c0-6.418,1.819-11.738,5.479-15.986
			c3.652-4.242,8.18-6.367,13.563-6.367c4.293,0,7.977,1.367,11.075,4.097c3.093,2.75,4.643,5.976,4.643,9.7
			c0,0.363-0.051,0.924-0.131,1.693C175.402,100.141,175.395,100.271,175.395,100.359z M129.088,84.396l0.465,0.254
			c-0.175,2.4-0.306,4.789-0.408,7.175c-0.101,2.38-0.146,4.796-0.146,7.204v8.863c0,6.541,0.334,10.491,1.019,11.846
			c0.671,1.359,2.024,2.037,4.031,2.037c0.328,0,0.686-0.029,1.049-0.086c0.378-0.051,0.742-0.139,1.106-0.256l0.298,1.746
			c-1.244,0.363-2.612,0.676-4.133,0.953c-1.507,0.262-3.166,0.479-4.973,0.646c-0.522,0.395-1.083,0.771-1.716,1.127
			c-0.642,0.352-1.36,0.715-2.14,1.07l-0.596-0.203c-0.204-1.106-0.352-2.264-0.453-3.492c-0.103-1.23-0.139-2.533-0.139-3.887
			v-1.347l-0.35-0.088c-1.185,2.636-3.107,4.724-5.755,6.289c-2.656,1.579-5.604,2.356-8.855,2.356c-4.622,0-7.945-1.463-9.97-4.381
			c-2.008-2.933-3.02-7.902-3.02-14.932v-3.217c0-0.873-0.015-1.811-0.043-2.823c-0.03-0.997-0.044-1.571-0.044-1.702
			c0-4.018-0.423-6.681-1.273-7.988c-0.838-1.305-2.511-2.099-5.028-2.39v-1.315c0.567-0.06,1.44-0.16,2.635-0.291
			c3.056-0.399,5.355-0.59,6.891-0.59c0.69-0.371,1.375-0.777,2.021-1.215c0.647-0.43,1.289-0.882,1.907-1.332l0.372,0.553
			c-0.132,1.863-0.248,3.945-0.313,6.272c-0.059,2.313-0.104,5.115-0.104,8.427c0,10.157,0.692,16.575,2.082,19.262
			c1.374,2.679,3.834,4.018,7.371,4.018c3.551,0,6.314-1.236,8.266-3.727c1.967-2.488,2.948-6.012,2.948-10.596v-4.896
			c0-0.879-0.015-1.819-0.045-2.814c-0.028-0.998-0.044-1.578-0.044-1.726c0-4.03-0.429-6.688-1.286-7.946
			c-0.866-1.271-2.547-1.965-5.052-2.082v-1.314c1.543-0.291,3.101-0.504,4.673-0.647c1.563-0.161,3.188-0.233,4.846-0.233
			c0.479-0.351,0.982-0.691,1.498-1.069C127.209,85.543,128.025,85.043,129.088,84.396z M82.051,63.6l1.44,0.588
			c-0.32,1.246-0.633,2.328-0.946,3.254c-0.335,0.908-0.713,1.761-1.135,2.554c0.087,1.405,0.146,2.591,0.188,3.56
			c0.045,0.952,0.074,1.73,0.074,2.327c0,0.327-0.029,1.069-0.074,2.185c-0.043,1.111-0.071,1.979-0.102,2.598H79.72
			c-0.291-5.617-1.95-9.823-5.013-12.609c-3.064-2.797-7.562-4.199-13.484-4.199c-8.105,0-14.451,2.635-19.036,7.881
			s-6.876,12.531-6.876,21.837c0,9.497,2.409,16.989,7.256,22.5c4.846,5.522,11.417,8.282,19.712,8.282
			c5.696,0,10.157-1.16,13.353-3.459c3.208-2.299,5.014-5.674,5.45-10.129h1.994c-0.087,1.273-0.263,2.569-0.495,3.916
			c-0.24,1.346-0.576,2.771-0.998,4.293c0.146,0.51,0.248,1.041,0.321,1.594c0.072,0.546,0.116,1.136,0.146,1.789
			c-2.664,1.478-5.75,2.598-9.292,3.369c-3.544,0.777-7.416,1.164-11.622,1.164c-11.039,0-19.756-2.873-26.137-8.607
			c-6.404-5.756-9.605-13.514-9.605-23.313c0-9.984,3.289-18.02,9.846-24.088c6.556-6.068,15.245-9.109,26.058-9.109
			c4.046,0,8.208,0.479,12.516,1.418c4.308,0.955,6.535,1.435,6.674,1.435c0.392,0,0.706-0.087,0.953-0.233
			C81.672,64.23,81.876,63.969,82.051,63.6z"/>
		<path fill="#2E3191" d="M162.855,58.398h19.064l2.365-6.148l-0.611-0.342c-1.44,2.008-2.853,3.449-4.228,4.293
			c-1.441,0.874-3.166,1.304-5.188,1.304h-3.261c-0.959,0-1.672-0.188-2.131-0.584c-0.458-0.384-0.686-0.995-0.686-1.817v-9.379
			h5.319c1.236,0,2.177,0.356,2.817,1.069c0.66,0.729,0.995,1.863,0.995,3.398h0.828v-9.86h-0.828c0,1.607-0.335,2.751-0.995,3.435
			c-0.592,0.642-1.537,0.961-2.817,0.961h-5.319v-8.485c0-0.8,0.228-1.382,0.686-1.747c0.429-0.349,1.126-0.517,2.06-0.517h3.462
			c1.995,0,3.669,0.466,5.022,1.405c0.785,0.553,1.688,1.527,2.714,2.925l0.895,1.172l0.511-0.35l-2.475-6.011h-18.199v0.858
			c1.069,0,1.854,0.168,2.336,0.517c0.503,0.364,0.758,0.946,0.758,1.747v18.86c0,0.846-0.255,1.457-0.758,1.818
			c-0.48,0.395-1.267,0.584-2.336,0.584V58.398L162.855,58.398z M152.72,33.149v0.896c1.607,0,2.604,0.167,2.997,0.517
			c0.342,0.298,0.351,0.909,0.029,1.848l-6.769,18.723l-7.044-19.443c-0.248-0.706-0.158-1.164,0.276-1.375
			c0.387-0.182,1.361-0.269,2.918-0.269V33.15H136.2v0.896c1.164,0,2.021,0.167,2.575,0.517c0.386,0.247,0.714,0.706,0.962,1.368
			l8.309,23.119h0.591l8.199-22.529c0.351-1.085,0.743-1.754,1.18-2.031c0.408-0.299,1.223-0.444,2.438-0.444V33.15L152.72,33.149
			L152.72,33.149z M125.113,33.12v0.858c1.163,0,2,0.153,2.502,0.481c0.51,0.349,0.757,0.96,0.757,1.848v19.21
			c0,0.729-0.247,1.258-0.757,1.58c-0.502,0.318-1.339,0.479-2.502,0.479v0.896h8.688v-0.896c-1.194,0-2.038-0.161-2.549-0.479
			c-0.479-0.322-0.712-0.853-0.712-1.58v-19.21c0-0.888,0.232-1.499,0.712-1.848c0.479-0.328,1.332-0.481,2.549-0.481V33.12H125.113
			z M114.866,33.149v0.896c1.614,0,2.604,0.167,2.997,0.517c0.351,0.298,0.351,0.909,0.029,1.848l-6.761,18.723L104.08,35.69
			c-0.246-0.706-0.152-1.164,0.275-1.375c0.395-0.182,1.36-0.269,2.926-0.269V33.15h-8.936v0.896c1.171,0,2.022,0.167,2.575,0.517
			c0.394,0.247,0.714,0.706,0.962,1.368l8.311,23.119h0.597l8.2-22.529c0.343-1.085,0.734-1.754,1.173-2.031
			c0.407-0.299,1.229-0.444,2.443-0.444V33.15L114.866,33.149L114.866,33.149z"/>
		<path fill="#2E3191" d="M162.855,58.398h19.064l2.365-6.148l-0.611-0.342c-1.44,2.008-2.853,3.449-4.228,4.293
			c-1.441,0.874-3.166,1.304-5.188,1.304h-3.261c-0.959,0-1.672-0.188-2.131-0.584c-0.458-0.384-0.686-0.995-0.686-1.817v-9.379
			h5.319c1.236,0,2.177,0.356,2.817,1.069c0.66,0.729,0.995,1.863,0.995,3.398h0.828v-9.86h-0.828c0,1.607-0.335,2.751-0.995,3.435
			c-0.592,0.642-1.537,0.961-2.817,0.961h-5.319v-8.485c0-0.8,0.228-1.382,0.686-1.747c0.429-0.349,1.126-0.517,2.06-0.517h3.462
			c1.995,0,3.669,0.466,5.022,1.405c0.785,0.553,1.688,1.527,2.714,2.925l0.895,1.172l0.511-0.35l-2.475-6.011h-18.199v0.858
			c1.069,0,1.854,0.168,2.336,0.517c0.503,0.364,0.758,0.946,0.758,1.747v18.86c0,0.846-0.255,1.457-0.758,1.818
			c-0.48,0.395-1.267,0.584-2.336,0.584V58.398L162.855,58.398z M152.72,33.149v0.896c1.607,0,2.604,0.167,2.997,0.517
			c0.342,0.298,0.351,0.909,0.029,1.848l-6.769,18.723l-7.044-19.443c-0.248-0.706-0.158-1.164,0.276-1.375
			c0.387-0.182,1.361-0.269,2.918-0.269V33.15H136.2v0.896c1.164,0,2.021,0.167,2.575,0.517c0.386,0.247,0.714,0.706,0.962,1.368
			l8.309,23.119h0.591l8.199-22.529c0.351-1.085,0.743-1.754,1.18-2.031c0.408-0.299,1.223-0.444,2.438-0.444V33.15L152.72,33.149
			L152.72,33.149z M125.113,33.12v0.858c1.163,0,2,0.153,2.502,0.481c0.51,0.349,0.757,0.96,0.757,1.848v19.21
			c0,0.729-0.247,1.258-0.757,1.58c-0.502,0.318-1.339,0.479-2.502,0.479v0.896h8.688v-0.896c-1.194,0-2.038-0.161-2.549-0.479
			c-0.479-0.322-0.712-0.853-0.712-1.58v-19.21c0-0.888,0.232-1.499,0.712-1.848c0.479-0.328,1.332-0.481,2.549-0.481V33.12H125.113
			z M114.866,33.149v0.896c1.614,0,2.604,0.167,2.997,0.517c0.351,0.298,0.351,0.909,0.029,1.848l-6.761,18.723L104.08,35.69
			c-0.246-0.706-0.152-1.164,0.275-1.375c0.395-0.182,1.36-0.269,2.926-0.269V33.15h-8.936v0.896c1.171,0,2.022,0.167,2.575,0.517
			c0.394,0.247,0.714,0.706,0.962,1.368l8.311,23.119h0.597l8.2-22.529c0.343-1.085,0.734-1.754,1.173-2.031
			c0.407-0.299,1.229-0.444,2.443-0.444V33.15L114.866,33.149L114.866,33.149z"/>
	</g>
	<g>
		<path fill="#F48220" stroke="#F48220" stroke-width="0.6297" stroke-miterlimit="22.9256" d="M452.285,122.669
			c0.693-1.591,1.391-3.815,2.088-6.672c-4.002,4.747-6.596,7.299-7.781,7.655c-1.189,0.359-2.131-0.235-2.83-1.782
			c0.1-0.772,0.92-1.966,2.461-3.574s3.125-3.312,4.75-5.106s3.275-3.945,4.949-6.451c1.676-2.506,3.578-6.219,5.709-11.137
			c2.131-4.92,3.977-9.596,5.535-14.024c1.557-4.433,2.729-7.763,3.514-9.996s1.338-4.076,1.656-5.528
			c0.318-1.451,0.916-2.496,1.791-3.139c2.531,0.309,4.045,1.199,4.539,2.677c0.494,1.476,0.42,3.343-0.221,5.599
			s-2.09,6.024-4.348,11.305c-2.258,5.279-4.518,10.512-6.781,15.695c-2.262,5.183-3.836,8.641-4.721,10.367
			c-0.885,1.729-1.426,3.607-1.625,5.639c3.215-4.355,5.426-7.243,6.631-8.658s2.418-2.523,3.637-3.329
			c1.221-0.806,2.371-1.088,3.453-0.851c1.082,0.24,1.916,1.133,2.5,2.681c0.584,1.549,0.738,3.284,0.463,5.209
			c-0.273,1.924-0.514,3.337-0.715,4.235c-0.201,0.9-0.123,1.572,0.236,2.021c0.357,0.447,1.291,0.242,2.795-0.611
			c1.506-0.853,2.959-2.049,4.359-3.586c1.4-1.535,2.527-2.816,3.387-3.841c0.855-1.024,1.584-1.459,2.18-1.308
			c0.598,0.152,1.316,1.207,2.156,3.167c-3.164,3.89-5.365,6.37-6.602,7.437c-1.236,1.069-2.557,1.982-3.963,2.744
			c-1.402,0.762-2.479,1.248-3.225,1.463c-1.084,0.313-2.262,0.359-3.535,0.145c-1.27-0.217-2.256-1.131-2.949-2.744
			s-0.586-3.475,0.328-5.581c0.912-2.108,1.283-3.463,1.111-4.062c-0.172-0.598-0.705-0.33-1.602,0.801
			c-0.895,1.134-1.965,2.461-3.207,3.984c-1.242,1.522-2.322,2.854-3.238,3.991c-0.918,1.14-1.992,2.483-3.229,4.037
			c-1.232,1.554-2.377,2.901-3.43,4.047s-2.236,1.956-3.551,2.431c-1.064,0.308-1.949-0.108-2.658-1.25
			C451.6,125.627,451.592,124.262,452.285,122.669z"/>
		<path fill="#F48220" stroke="#F48220" stroke-width="0.6297" stroke-miterlimit="22.9256" d="M493.828,106.967
			c1.096,1.238,2.148,1.744,3.168,1.518c1.018-0.228,1.852-0.891,2.504-1.984s1.477-2.189,2.475-3.286s1.912-2.362,2.742-3.8
			s1.004-2.993,0.521-4.667c-0.482-1.675-1.305-2.847-2.465-3.517s-1.873-1.742-2.137-3.222c-0.266-1.478-0.08-2.598,0.553-3.362
			c0.631-0.767,1.854-1.439,3.666-2.027c2.07-0.014,3.627,0.994,4.672,3.025c1.045,2.029,1.592,4.043,1.637,6.035
			c0.045,1.994,1.133,3.495,3.266,4.5c2.133,1.004,3.795,1.061,4.988,0.166c1.193-0.896,2.117-0.529,2.77,1.096
			c0.305,1.854,0.264,3.031-0.123,3.533c-0.387,0.498-1.279,1.112-2.684,1.84c-1.402,0.729-3.375,0.601-5.916-0.385
			c-2.543-0.984-4.121-0.869-4.738,0.346c-0.619,1.213-1.602,2.841-2.951,4.879c-1.346,2.039-2.754,3.756-4.219,5.148
			s-3.303,2.408-5.516,3.045c-2.318-0.367-4.191-1.432-5.619-3.188s-2.484-3.832-3.174-6.226c-0.271-1.733,0.084-3.828,1.061-6.277
			s1.982-4.553,3.021-6.309c1.035-1.756,2.199-3.158,3.486-4.209c1.287-1.052,2.355-1.263,3.205-0.633
			c0.85,0.631,1.537,1.5,2.064,2.609c0.527,1.111,0.713,2.078,0.559,2.9c-0.156,0.819-0.549,1.451-1.184,1.894
			c-0.633,0.44-1.51,1.034-2.633,1.776c-1.121,0.746-2.176,2.086-3.162,4.021S492.735,105.729,493.828,106.967z"/>
		<path fill="#F48220" stroke="#F48220" stroke-width="0.6297" stroke-miterlimit="22.9256" d="M519.531,96.021
			c0.754-1.545,1.938-3.715,3.553-6.512c1.613-2.795,3.361-5.598,5.25-8.406c1.887-2.81,3.725-5.022,5.518-6.641
			c1.037-0.881,1.98-1.443,2.832-1.688c0.68-0.196,1.297-0.213,1.854-0.049c1.33,0.459,2.355,1.264,3.08,2.414
			c0.723,1.152,0.939,2.789,0.652,4.912c-0.287,2.122-1.061,4.319-2.318,6.59c-1.258,2.273-2.422,4.229-3.494,5.864
			c-1.072,1.636-1.488,2.874-1.248,3.71c0.242,0.836,1.074,1.407,2.496,1.709c1.424,0.303,3.33-0.197,5.721-1.501
			c2.389-1.303,4.332-2.834,5.83-4.593c1.498-1.76,2.766-3.078,3.801-3.961c1.037-0.881,1.896-0.545,2.572,1.008
			c0.676,1.555,0.984,3.586,0.926,6.096c-0.061,2.512-0.84,5.049-2.334,7.617c-1.496,2.566-3.256,5.533-5.281,8.901
			c-2.023,3.366-4.059,6.51-6.098,9.428c-2.039,2.919-3.477,6.132-4.307,9.642c-0.834,3.51-0.748,4.569,0.258,3.18
			c1.004-1.391,2.295-3.233,3.867-5.532c1.572-2.298,3.313-5.099,5.219-8.397c1.906-3.301,4.859-8.879,8.867-16.733
			c4.004-7.854,7.145-13.226,9.424-16.115c2.275-2.892,3.805-4.351,4.578-4.379c0.502-0.015,0.85,0.306,1.039,0.963
			c0.104,0.358,0.168,0.827,0.195,1.401c-0.559,1.262-1.693,3.238-3.406,5.934s-3.998,6.559-6.857,11.59
			c-2.859,5.032-5.572,10.168-8.143,15.408c-2.568,5.239-5.266,9.836-8.09,13.79c-2.822,3.952-5.223,7.541-7.197,10.765
			c-0.959,0.989-1.865,1.605-2.715,1.852c-0.512,0.146-0.992,0.156-1.443,0.027c-1.254-0.354-1.826-2.26-1.717-5.723
			c0.107-3.463,0.654-6.729,1.637-9.795c0.982-3.068,2.162-5.934,3.539-8.595c1.375-2.663,2.873-5.101,4.492-7.315
			c1.621-2.215,3.107-4.488,4.465-6.82c1.354-2.332,2.098-4.23,2.23-5.693c0.133-1.462-0.408-1.775-1.619-0.941
			s-2.881,1.801-5.006,2.897c-2.127,1.099-4.031,1.841-5.717,2.229s-3.316,0.162-4.895-0.679c-1.578-0.84-2.477-2.313-2.691-4.421
			c-0.213-2.107,0.053-4.175,0.805-6.206c0.754-2.026,1.799-4.078,3.139-6.147c1.34-2.067,2.203-3.627,2.592-4.68
			c0.389-1.051,0.531-1.917,0.426-2.6c-0.104-0.682-0.838-0.229-2.197,1.361c-1.363,1.592-2.795,3.541-4.295,5.851
			c-1.502,2.312-3.025,5.372-4.578,9.187c-1.551,3.813-4.533,6.938-8.945,9.373c0.008-3.174,0.443-5.177,1.311-6.01
			S518.778,97.564,519.531,96.021z"/>
	</g>
	<rect x="433.875" y="101.757" fill="#F48220" width="7.807" height="7.808"/>
	<rect x="572.371" y="101.757" fill="#F48220" width="7.807" height="7.808"/>
</g>
</svg>
